<svg width="26" height="26" viewBox="0 0 26 26" fill="none" xmlns="http://www.w3.org/2000/svg">
<path d="M3.25 14.0834H4.33334V21.6667C4.33334 22.8616 5.30509 23.8334 6.5 23.8334H19.5C20.6949 23.8334 21.6667 22.8616 21.6667 21.6667V14.0834H22.75C22.9642 14.0833 23.1736 14.0198 23.3517 13.9007C23.5299 13.7817 23.6687 13.6125 23.7507 13.4146C23.8326 13.2166 23.8541 12.9989 23.8123 12.7887C23.7705 12.5786 23.6674 12.3856 23.5159 12.2341L13.7659 2.48411C13.6654 2.38342 13.546 2.30353 13.4146 2.24903C13.2832 2.19453 13.1423 2.16647 13 2.16647C12.8577 2.16647 12.7168 2.19453 12.5854 2.24903C12.454 2.30353 12.3346 2.38342 12.2341 2.48411L2.48409 12.2341C2.33263 12.3856 2.22949 12.5786 2.1877 12.7887C2.14592 12.9989 2.16738 13.2166 2.24935 13.4146C2.33133 13.6125 2.47015 13.7817 2.64826 13.9007C2.82637 14.0198 3.03577 14.0833 3.25 14.0834ZM13 4.78186L19.5 11.2819V16.25L19.5011 21.6667H6.5V11.2819L13 4.78186Z" fill="#496EE3"/>
<path d="M5.41666 12.4583V21.6667L6.49999 22.75H19.5L20.5833 21.6667V10.8333L13 3.25L5.41666 10.8333V12.4583Z" fill="#496EE3"/>
<path d="M13 19.5C17.0116 19.5 18.3094 15.6661 18.3625 15.5036L16.3042 14.8308C16.2955 14.8558 15.4581 17.3333 13 17.3333C10.5755 17.3333 9.72835 14.9273 9.69476 14.8243L7.63751 15.5036C7.6906 15.6661 8.98843 19.5 13 19.5Z" fill="white"/>
</svg>
