<svg width="22" height="20" viewBox="0 0 22 20" fill="none" xmlns="http://www.w3.org/2000/svg">
<path d="M20.8367 4.58333C20.6495 4.259 20.3814 3.98872 20.0587 3.79886C19.7359 3.60899 19.3694 3.50602 18.995 3.49999H5.12835L4.50002 1.05166C4.43654 0.815319 4.2949 0.607434 4.09819 0.461864C3.90147 0.316294 3.66126 0.241617 3.41669 0.249994H1.25002C0.962703 0.249994 0.687152 0.364131 0.483988 0.567295C0.280824 0.77046 0.166687 1.04601 0.166687 1.33333C0.166687 1.62065 0.280824 1.8962 0.483988 2.09936C0.687152 2.30252 0.962703 2.41666 1.25002 2.41666H2.59335L5.58335 13.5317C5.64684 13.768 5.78847 13.9759 5.98519 14.1215C6.1819 14.267 6.42211 14.3417 6.66669 14.3333H16.4167C16.6167 14.3327 16.8127 14.2767 16.9829 14.1716C17.1531 14.0664 17.2908 13.9162 17.3809 13.7375L20.9342 6.63083C21.0882 6.30801 21.1599 5.95209 21.1429 5.59482C21.1259 5.23755 21.0207 4.89005 20.8367 4.58333ZM15.745 12.1667H7.49002L5.72419 5.66666H18.995L15.745 12.1667Z" fill="black"/>
<path d="M6.125 19.75C7.02246 19.75 7.75 19.0225 7.75 18.125C7.75 17.2275 7.02246 16.5 6.125 16.5C5.22754 16.5 4.5 17.2275 4.5 18.125C4.5 19.0225 5.22754 19.75 6.125 19.75Z" fill="black"/>
<path d="M16.9584 19.75C17.8558 19.75 18.5834 19.0225 18.5834 18.125C18.5834 17.2275 17.8558 16.5 16.9584 16.5C16.0609 16.5 15.3334 17.2275 15.3334 18.125C15.3334 19.0225 16.0609 19.75 16.9584 19.75Z" fill="black"/>
</svg>
